<?xml version="1.0" standalone="no"?><!DOCTYPE svg PUBLIC "-//W3C//DTD SVG 1.1//EN" "http://www.w3.org/Graphics/SVG/1.1/DTD/svg11.dtd"><svg t="1720623837687" class="icon" viewBox="0 0 1025 1024" version="1.1" xmlns="http://www.w3.org/2000/svg" p-id="25059" xmlns:xlink="http://www.w3.org/1999/xlink" width="128.125" height="128"><path d="M0.996206 3.885203h1020.114797v1020.114797H0.996206z" fill="#9FFFF7" p-id="25060"></path><path d="M251.39254827 723.1956416c-11.26376747-84.05320853 38.04178133-201.26014827 78.63384853-249.60933973-2.44402453-29.3283008-6.269456-104.6680288 16.36434133-117.6319872 18.70210453-10.7324576 64.7135328 15.5142464 93.9355712 34.74765973l290.30766934 2.01897813c29.00951467-19.2334144 77.57122987-47.7116192 96.9109056-36.66037546 25.18408427 14.45162667 17.53322347 106.155696 15.62050773 125.70789546 38.89187627 46.75526187 64.39474667 188.18992747 64.39474667 250.0343872" fill="#4DECE1" p-id="25061"></path><path d="M809.915361 689.075591c1.295068 28.790349-26.698317 39.648993-63.757174 39.648993s-72.125304-7.770406-70.332134-39.648993c1.69355-30.68314 36.261893-55.588287 67.044654-55.588287 34.468723 0 65.749587 24.905146 67.044654 55.588287zM319.184356 689.075591c1.295068 28.790349-26.698317 39.648993-63.757174 39.648993s-72.125304-7.770406-70.332134-39.648993c1.69355-30.68314 36.261893-55.588287 67.044654-55.588287 34.369102 0 65.649966 24.905146 67.044654 55.588287z" fill="#4DECE1" p-id="25062"></path><path d="M172.3336512 674.95271253c-11.26376747-84.05320853 38.04178133-201.26014827 78.63384853-249.60933973-2.44402453-29.3283008-6.269456-104.6680288 16.3643424-117.6319872 18.70210453-10.7324576 64.7135328 15.5142464 93.93557014 34.7476608l290.30766933 2.01897707c29.00951467-19.2334144 77.57122987-47.7116192 96.9109056-36.66037547 25.18408427 14.45162667 17.53322347 106.155696 15.62050773 125.70789547 38.89187627 46.75526187 64.39474667 188.18992747 64.39474667 250.03438826" fill="#FFFFFF" p-id="25063"></path><path d="M835.19574507 683.45366933h-13.38900694c0-32.3036352-6.8007648-82.9905888-17.42696106-129.10827946-12.64517333-55.25621867-28.79699093-96.59211947-45.373856-116.56936747-1.16888107-1.38140587-1.70019093-3.1878592-1.4876672-4.99431253 5.10057387-51.11200213 3.40038293-110.19365013-12.3263872-119.2259168-4.46300267-2.55028693-23.9089408-7.33207467-89.897616 36.44785173-1.06261973 0.7438336-2.44402453 1.16888107-3.71916907 1.16888213l-290.30766933-2.01897813c-1.27514347 0-2.55028693-0.42504747-3.61290667-1.06261867-63.65091307-41.76094933-82.67180373-36.9791616-86.9222816-34.53513706-12.85769707 7.33207467-17.95827093 51.00573973-12.9639584 111.25626986 0.1062624 1.80645333-0.42504747 3.50664427-1.5939296 4.88805014-39.63570987 47.07404693-88.09116373 162.79331947-77.14618133 244.40250346l-13.28274454 1.80645334c-5.20683627-38.89187627 1.91271573-89.04752107 20.18977174-141.32840427 15.3017216-43.8861888 36.9791616-85.22209067 58.23155306-111.3625312-1.16888107-14.557888-2.55028693-39.84823467-1.06261973-63.2258656 2.12523947-32.1973728 8.92600427-51.21826347 20.93360533-58.12529067 16.68312747-9.56357653 50.15564373 1.80645333 99.3549312 33.7913024l286.2697152 1.91271574c50.793216-33.47251627 85.22209067-45.58637973 102.3302656-35.81028054 12.9639584 7.43833707 19.977248 29.2220384 21.3586528 66.51998614 0.95635733 25.18408427-0.95635733 50.793216-2.1252384 62.90707946 39.74197227 51.32452587 63.9696992 191.484048 63.96969814 252.265888z" fill="#6B3437" p-id="25064"></path><path d="M895.6588 690.36069653H80.62958187c-4.35674027 0-7.86338453-3.50664427-7.8633856-7.86338453s3.50664427-7.86338453 7.8633856-7.8633856h815.02921813c4.35674027 0 7.86338453 3.50664427 7.86338453 7.8633856s-3.50664427 7.86338453-7.86338453 7.86338453z" fill="#6B3437" p-id="25065"></path><path d="M318.33758187 517.36622933a23.1651072 15.83303147 90 1 0 31.66606293 0 23.1651072 15.83303147 90 1 0-31.66606293 0Z" fill="" p-id="25066"></path><path d="M504.6147936 354.14786133h147.810384s70.6642016-44.84254613 90.64145067-38.14804266c19.977248 6.69450347 28.3719424 30.39091947 18.70210453 123.26387093 0 0 32.94120747 61.31314987 32.62242027 77.35870507 0 0-93.72304747 135.80278187-258.21655787 35.81028053-84.26573227-59.08164907-68.11391467-162.47453333-31.5598016-198.28481387z" fill="#FEAE02" p-id="25067"></path><path d="M610.45170453 517.36622933a23.1651072 15.83303147 90 1 0 31.66606294 0 23.1651072 15.83303147 90 1 0-31.66606294 0Z" fill="" p-id="25068"></path><path d="M464.0227264 585.26762027c-6.48197973 0-12.53891093-2.86907307-16.57686613-7.96964694-1.4876672-1.91271573-1.16888107-4.569264 0.63757226-6.1631936 1.91271573-1.4876672 4.569264-1.16888107 6.1631936 0.6375712 2.44402453 2.9753344 5.95066987 4.6755264 9.77610027 4.6755264 6.9070272 0 12.64517333-5.63188373 12.64517227-12.64517226 0-2.44402453 1.91271573-4.35674027 4.35674026-4.35674134s4.35674027 1.91271573 4.35674027 4.35674134c0 11.90133973-9.56357653 21.4649152-21.3586528 21.4649152z" fill="" p-id="25069"></path><path d="M498.23907627 585.26762027c-11.79507733 0-21.25239147-9.56357653-21.25239147-21.25239147 0-2.44402453 1.91271573-4.35674027 4.35674027-4.35674027s4.35674027 1.91271573 4.35674026 4.35674027c0 6.9070272 5.63188373 12.64517333 12.64517334 12.64517227 3.8254304 0 7.43833707-1.70019093 9.77610026-4.67552534 1.4876672-1.91271573 4.25047787-2.12523947 6.1631936-0.63757226 1.91271573 1.4876672 2.12523947 4.25047787 0.6375712 6.1631936-4.14421653 4.78178773-10.20114773 7.7571232-16.68312746 7.7571232z" fill="" p-id="25070"></path><path d="M494.6261696 382.20101867c-4.569264 12.53891093-9.138528 18.3833184-19.977248 18.3833184-10.83872 0-15.62050773-8.5009568-19.65846187-19.76472427-5.10057387-14.02657813 4.99431253-27.52184747 19.55220054-27.09679893 17.7457472 0.53130987 25.18408427 14.45162667 20.08350933 28.4782048zM547.33210133 374.6564192c-3.29412053 6.37571733-6.58824107 9.2447904-14.45162666 9.2447904-7.7571232 0-11.26376747-4.35674027-14.13284054-9.988624-3.719168-7.11955093 3.61290667-13.9203168 14.13284054-13.70779307 12.85769707 0.31878613 18.17079467 7.33207467 14.45162666 14.45162667zM437.24471253 374.6564192c-3.29412053 6.37571733-6.58824107 9.2447904-14.45162666 9.2447904-7.7571232 0-11.26376747-4.35674027-14.13284054-9.988624-3.719168-7.11955093 3.61290667-13.9203168 14.13284054-13.70779307 12.85769707 0.31878613 18.17079467 7.33207467 14.45162666 14.45162667z" fill="#F97700" p-id="25071"></path><path d="M464.34151147 536.1745952h35.5977568c5.73814613 0 8.81974293 6.69450347 5.10057386 11.05124373l-18.27705706 17.53322347c-2.65654933 3.0815968-7.54459947 3.0815968-10.20114774 0l-17.32069973-17.53322347c-3.719168-4.35674027-0.63757227-11.05124373 5.10057387-11.05124373z" fill="" p-id="25072"></path><path d="M677.8217856 354.6791712c19.2334144-12.75143467 49.51807253-29.85961067 71.72682133-36.55411413-0.21252373-0.1062624-0.42504747-0.21252373-0.6375712-0.42504747-19.2334144-10.94498133-67.47634347 17.6394848-96.59212053 36.8728992h25.5028704z" fill="#FEE6A5" p-id="25073"></path><path d="M281.4646816 432.4629248c-2.44402453-29.00951467-19.44593813-102.86157547 10.2011488-116.46310613-6.69450347-0.95635733-13.49526827-1.16888107-17.8520096 1.27514346-22.63379733 12.9639584-17.85200853 85.96592427-15.407984 115.294224-40.6983296 48.3491904-90.0038784 165.4498688-78.63384853 249.60933974l26.246704 0.31878613c-10.51993387-84.05320853 34.96018453-202.11024427 75.44598933-250.0343872z" fill="#F1E8E3" p-id="25074"></path><path d="M288.90301867 683.45366933c1.38140587 30.7097056-28.4782048 42.2922592-68.00765227 42.2922592s-76.9336576-8.28843307-75.02094293-42.2922592c1.80645333-32.72868267 38.67935253-59.2941728 71.5142976-59.2941728 36.66037547 0 70.0266304 26.56548907 71.5142976 59.2941728z" fill="#FFFFFF" p-id="25075"></path><path d="M239.089406 718.862146c-33.372896 0-55.389046-6.076856-67.243896-18.629049-6.973441-7.371923-10.1613-16.736258-9.563576-27.893764 0.896585-16.337776 9.862438-31.878587 25.104388-44.032299 14.146123-11.257126 31.878587-17.732464 48.415604-17.732464 38.353925 0 72.025683 28.292246 73.519992 61.764763 0.498103 11.356747-2.888997 20.920323-10.161299 28.491487-11.356747 12.054091-31.579726 18.031326-60.071213 18.031326z m-3.28748-95.137659c-32.476311 0-59.174628 26.598696-60.469695 49.41181-0.398482 7.471544 1.593929 13.448779 5.977235 18.230567 9.165094 9.663197 28.591108 14.544606 57.77994 14.544606 24.407043 0 41.940267-4.781788 50.706878-13.946882 4.682168-4.881409 6.87382-11.057885 6.475338-18.828291-1.195447-26.797938-28.88997-49.41181-60.469696-49.41181z" fill="#6B3437" p-id="25076"></path><path d="M281.03963413 682.497312c-0.63757227-7.54459947-3.40038293-15.62050773-8.71348053-22.95258347 0.53130987 2.55028693 0.850096 5.10057387 1.06261973 7.6508608 1.16888107 27.30932373-17.7457472 35.70401813-52.91845546 35.70401814s-60.99436373-7.0132896-59.2941728-37.29794667c0.1062624-2.12523947 1.38140587-3.50664427 1.80645333-5.5256224-4.03795413 5.95066987-7.7571232 12.11386347-8.71348053 20.18977173-3.9316928 32.3036352 29.75334827 39.954496 66.3074624 39.95449707 30.49718187 0.1062624 62.80081707-9.77610027 60.46305386-37.7229952z" fill="#F1E8E3" p-id="25077"></path><path d="M761.44994667 435.96956907s25.396608 37.51047147 34.21634986 75.97730026c0 0-3.40038293 7.0132896-11.3700288 14.34536427 0 0-1.5939296-39.63570987-22.84632106-90.32266453z" fill="#E0930A" p-id="25078"></path><path d="M795.66629653 511.94686933s-6.1631936 9.138528-11.3700288 14.34536427c-5.20683627 5.20683627 0 0 0 0s16.36434133 87.55985387 13.38900694 149.9356224l25.82165546 2.76281067c-0.1062624 0-5.95066987-114.01908053-27.8406336-167.04379734" fill="#F1E8E3" p-id="25079"></path><path d="M812.4556864 683.45366933c1.38140587 30.7097056-28.4782048 42.2922592-68.00765333 42.2922592s-76.9336576-8.28843307-75.02094187-42.2922592c1.80645333-32.72868267 38.67935253-59.2941728 71.5142976-59.2941728 36.66037547 0 70.0266304 26.56548907 71.5142976 59.2941728z" fill="#FFFFFF" p-id="25080"></path><path d="M744.44803307 732.65295573c-35.59775573 0-59.08164907-6.48197973-71.72682134-19.8709856-7.43833707-7.86338453-10.83872-17.85200853-10.20114773-29.75334826 0.95635733-17.42696107 10.51993387-34.00382613 26.7780128-46.9677856 15.08919787-12.00760107 34.00382613-18.91462827 51.643312-18.91462827 40.91085333 0 76.8273952 30.17839573 78.4213248 65.88241387 0.53130987 12.11386347-3.0815968 22.3150112-10.83872 30.39091946-12.11386347 12.85769707-33.68504107 19.2334144-64.07596053 19.2334144z m-3.50664427-101.4801696c-34.6413984 0-63.1196032 28.3719424-64.50100907 52.70593067-0.42504747 7.96964693 1.70019093 14.34536427 6.37571734 19.44593813 9.77610027 10.30741013 30.49718187 15.5142464 61.631936 15.5142464 26.0341792 0 44.7362848-5.10057387 54.08733653-14.87667413 4.99431253-5.20683627 7.33207467-11.79507733 6.9070272-20.0835104-1.27514347-28.5844672-30.815968-52.70593067-64.501008-52.70593067z" fill="#6B3437" p-id="25081"></path><path d="M804.8048256 682.28478827c-0.63757227-7.54459947-3.719168-15.72677013-9.03226667-23.1651072 0.53130987 2.55028693 0.850096 5.10057387 1.06261974 7.6508608 1.16888107 27.30932373-17.53322347 36.02280427-52.70593174 36.02280426s-61.10062613-7.0132896-59.40043413-37.29794773c0.1062624-2.12523947 1.16888107-3.1878592 1.5939296-5.20683627-4.03795413 5.95066987-7.54459947 10.83872-8.5009568 18.91462934-3.9316928 32.4098976 28.15941867 40.804592 66.41372373 40.91085333 36.9791616 0.31878613 62.80081707-9.8823616 60.56931627-37.82925653z" fill="#F1E8E3" p-id="25082"></path><path d="M232.79670507 569.75337387c-3.29412053 3.1878592-6.58824107 4.6755264-14.4516256 4.6755264s-11.26376747-2.12523947-14.13284054-4.99431147c-3.719168-3.50664427 3.61290667-7.0132896 14.13284054-6.80076587 12.75143467 0.1062624 18.17079467 3.61290667 14.4516256 7.11955094zM229.50258453 601.31317547c-3.29412053 4.88805013-6.58824107 7.11955093-14.45162666 7.11955093s-11.26376747-3.29412053-14.13284054-7.6508608c-3.719168-5.52562133 3.61290667-10.7324576 14.13284054-10.51993387 12.75143467 0.1062624 18.17079467 5.52562133 14.45162666 11.05124374zM809.79913707 593.76857707c-3.29412053 4.88805013-6.58824107 7.11955093-14.4516256 7.11955093s-11.26376747-3.29412053-14.13284054-7.6508608c-3.719168-5.52562133 3.61290667-10.7324576 14.13284054-10.51993387 12.85769707 0.1062624 18.17079467 5.52562133 14.4516256 11.05124374z" fill="#F97700" p-id="25083"></path></svg>