<?xml version="1.0" standalone="no"?><!DOCTYPE svg PUBLIC "-//W3C//DTD SVG 1.1//EN" "http://www.w3.org/Graphics/SVG/1.1/DTD/svg11.dtd"><svg t="1720623822169" class="icon" viewBox="0 0 1258 1024" version="1.1" xmlns="http://www.w3.org/2000/svg" p-id="22742" xmlns:xlink="http://www.w3.org/1999/xlink" width="157.25" height="128"><path d="M956.752457 73.698743c-11.1616-3.218286-33.323886 6.304914-71.431314 33.909028l-0.672914 0.497372-1.989486 1.492114c-18.461257 13.984914-108.719543 84.260571-143.594057 108.778057l-1.287315 0.892343a29.257143 29.257143 0 0 1-21.035885 5.002972c-59.216457-8.674743-71.870171-10.620343-74.459429-10.752h-0.453486c-0.234057 0.014629-0.2048 0.1024-0.160914 0.190171v0.219429c-0.380343 0.2048-1.024 0.292571-2.603886 0.292571-2.369829 0-2.706286-0.219429-2.779428-0.424229l-0.043886-0.2048c-0.043886-0.043886-0.1024-0.073143-0.263314-0.073142h-0.321829c-2.296686 0.087771-13.355886 1.974857-67.466971 10.678857a29.257143 29.257143 0 0 1-21.211429-4.768915c-8.133486-5.588114-140.551314-98.494171-167.160685-115.390171-37.961143-24.137143-59.435886-32.475429-67.408458-30.266514-35.415771 9.845029-70.787657 137.903543-70.787657 274.475885 0 1.082514-0.029257 2.179657-0.087771 3.262172-0.863086 15.008914-6.7584 27.648-17.802972 43.563886-2.501486 3.613257-20.421486 27.589486-25.673142 35.401142-10.283886 15.213714-17.861486 29.666743-23.4496 45.8752-23.946971 69.471086-29.0816 97.470171-28.233143 158.266515 0.936229 68.022857 29.184 140.039314 88.210285 196.476343 79.418514 75.922286 208.340114 119.764114 394.386286 119.764114 189.659429 0 318.727314-38.955886 395.761372-108.149029 60.225829-54.111086 87.04-125.513143 87.04-207.681828 0-51.785143-5.646629-94.939429-25.351315-159.685486a206.4384 206.4384 0 0 0-21.679543-48.2304c-3.364571-5.588114-23.800686-35.927771-28.789028-45.114514a109.348571 109.348571 0 0 1-10.678857-26.887315l-0.394972-1.916342c-4.798171-27.999086-26.682514-164.074057-31.934171-191.429486-12.156343-63.239314-22.3232-84.0704-36.191086-88.064z" fill="#FDFCFA" p-id="22743"></path><path d="M960.950857 43.885714l-134.217143 193.2288 202.386286 99.342629V178.117486zM295.1168 43.885714l134.231771 193.2288-202.386285 99.342629V178.117486z" fill="#FFEBE2" p-id="22744"></path><path d="M183.135086 341.7088c1.067886-160.9728 41.530514-304.274286 113.605485-324.315429 30.134857-8.367543 62.405486 4.183771 114.453943 37.244343 23.873829 15.169829 125.162057 86.016 158.5152 109.304686l0.833829 0.585143 0.555886-0.1024c11.790629-1.930971 27.794286-4.578743 34.113828-5.558857l1.477486-0.234057c13.487543-2.048 22.688914-2.925714 32.373028-2.925715 9.596343 0 19.104914 0.863086 33.616458 2.8672 3.510857 0.482743 13.4144 1.960229 23.815314 3.510857l7.811657 1.170286 7.460571 1.111772 1.828572 0.263314 1.974857-1.418972c16.018286-11.688229 38.458514-28.672 60.503771-45.538742l7.753143-5.9392c32.168229-24.634514 61.761829-47.601371 67.1744-51.521829C903.387429 22.279314 937.969371 7.402057 972.931657 17.481143c43.476114 12.507429 61.279086 48.991086 77.472914 133.251657 5.456457 28.394057 27.487086 165.361371 32.1536 192.585143l-0.219428-1.272686 0.453486 1.653029c0.731429 2.340571 1.755429 4.827429 3.101257 7.548343l1.462857 2.808685c3.393829 6.2464 22.762057 35.0208 27.457828 42.8032a264.484571 264.484571 0 0 1 27.574858 61.44C1163.893029 528.954514 1170.285714 577.755429 1170.285714 635.040914c0 97.718857-32.797257 185.051429-106.452114 251.216457-89.088 80.018286-231.936 123.128686-434.878171 123.128686-200.148114 0-343.595886-48.786286-434.805029-135.9872C123.172571 805.522286 89.014857 718.4384 87.8592 635.421257c-0.950857-68.037486 5.397943-102.634057 31.422171-178.146743 7.402057-21.460114 17.3056-40.3456 30.266515-59.538285 6.2464-9.259886 24.4736-33.660343 26.112-36.030172 5.383314-7.753143 7.3728-11.995429 7.460571-13.546057v-6.4512z m773.617371-267.995429c-11.1616-3.218286-33.323886 6.290286-71.431314 33.8944l-0.672914 0.497372-1.989486 1.492114c-18.461257 13.984914-108.719543 84.260571-143.594057 108.778057l-1.287315 0.892343a29.257143 29.257143 0 0 1-21.035885 5.002972c-59.216457-8.674743-71.870171-10.620343-74.459429-10.752h-0.453486c-0.234057 0.014629-0.2048 0.1024-0.160914 0.190171v0.219429c-0.380343 0.2048-1.024 0.292571-2.603886 0.292571-2.369829 0-2.706286-0.219429-2.779428-0.424229l-0.043886-0.2048c-0.043886-0.043886-0.1024-0.073143-0.263314-0.073142h-0.321829c-2.296686 0.087771-13.355886 1.974857-67.466971 10.678857a29.257143 29.257143 0 0 1-21.211429-4.768915c-8.133486-5.588114-140.551314-98.494171-167.160685-115.390171-37.961143-24.137143-59.435886-32.475429-67.408458-30.266514-35.415771 9.845029-70.787657 137.903543-70.787657 274.475885 0 1.082514-0.029257 2.179657-0.087771 3.262172-0.863086 15.008914-6.7584 27.648-17.802972 43.563886-2.501486 3.613257-20.421486 27.589486-25.673142 35.401142-10.283886 15.213714-17.861486 29.666743-23.4496 45.8752-23.946971 69.471086-29.0816 97.470171-28.233143 158.266515 0.936229 68.022857 29.184 140.039314 88.210285 196.476343 79.418514 75.922286 208.340114 119.764114 394.386286 119.764114 189.659429 0 318.727314-38.955886 395.761372-108.149029 60.225829-54.111086 87.04-125.513143 87.04-207.681828 0-51.785143-5.646629-94.939429-25.351315-159.685486a206.4384 206.4384 0 0 0-21.679543-48.2304c-3.364571-5.588114-23.800686-35.927771-28.789028-45.114514a109.348571 109.348571 0 0 1-10.678857-26.887315l-0.394972-1.916342c-4.798171-27.999086-26.682514-164.074057-31.934171-191.429486-12.156343-63.239314-22.3232-84.0704-36.191086-88.064z" fill="#4A383A" p-id="22745"></path><path d="M335.330743 27.9552c95.700114 147.456 125.981257 196.944457 125.981257 214.162286 0 16.5888-10.122971 25.834057-22.279314 29.959314-3.935086 1.345829-7.460571 1.974857-12.873143 2.647771-1.2288 0.146286-10.196114 1.170286-13.194972 1.536a214.498743 214.498743 0 0 0-60.664685 16.705829c-42.057143 18.388114-85.489371 51.419429-130.208915 104.009143l-44.573257-37.888c50.336914-59.216457 100.922514-97.6896 151.3472-119.734857a272.822857 272.822857 0 0 1 56.246857-17.8176l3.028115-0.585143-1.579886-2.647772c-2.194286-3.6864-4.578743-7.636114-7.153371-11.849142l-2.633143-4.330058c-20.041143-32.768-50.234514-80.223086-90.5216-142.306742L335.330743 27.9552zM937.545143 51.434057l-90.960457 148.670172-22.7328 37.156571-5.675886 9.303771-1.418971 2.325943-0.365715 0.585143-0.087771 0.146286c-11.8784 19.412114 1.901714 44.324571 24.619886 44.558628h0.146285l0.292572 0.014629a169.691429 169.691429 0 0 1 16.778971 1.9456c15.345371 2.545371 32.475429 7.050971 50.922057 14.0288 53.467429 20.202057 106.013257 56.305371 153.834057 112.610743l44.602515-37.873372c-54.403657-64.058514-115.229257-105.852343-177.737143-129.462857a348.5696 348.5696 0 0 0-35.649829-11.395657l-5.046857-1.258057 0.585143-0.950857 4.871314-7.957943 1.989486-3.247543 29.652114-48.493714 2.706286-4.417829 58.5728-95.758628-49.912686-30.529829z" fill="#4A383A" p-id="22746"></path><path d="M226.947657 607.085714a402.080914 270.628571 0 1 0 804.161829 0 402.080914 270.628571 0 1 0-804.161829 0Z" fill="#E0D9D5" p-id="22747"></path><path d="M188.928 643.657143a65.199543 43.885714 0 1 0 130.399086 0 65.199543 43.885714 0 1 0-130.399086 0Z" fill="#FDA2A2" p-id="22748"></path><path d="M949.613714 643.657143a65.199543 43.885714 0 1 0 130.399086 0 65.199543 43.885714 0 1 0-130.399086 0Z" fill="#FDA2A2" p-id="22749"></path><path d="M722.944 685.816686c-15.330743 4.7104-18.037029 26.038857-49.751771 14.862628-16.764343-5.895314-20.567771-22.586514-21.182172-33.865143 20.333714-12.975543 36.937143-36.425143 24.283429-53.277257-13.2096-17.598171-46.2848-14.804114-71.168-8.469943-24.868571 6.334171-21.284571 27.311543-15.316115 40.126172 3.642514 7.826286 12.624457 18.724571 22.308572 25.687771-1.960229 13.648457-7.562971 31.232-23.317943 36.425143-26.814171 8.8064-31.963429-9.157486-38.034286-19.894857-6.977829-12.405029-36.337371-9.947429-37.024914 14.043429-0.643657 22.059886 17.2032 54.8864 55.208229 54.974171 46.240914 0.117029 63.488-32.885029 63.809828-39.687314 11.410286 21.1968 36.132571 41.925486 72.367543 37.639314 36.2496-4.3008 51.419429-34.9184 49.590857-50.468571-1.828571-15.5648-13.809371-23.625143-31.773257-18.095543" fill="#4C393A" p-id="22750"></path><path d="M333.165714 528.296229c46.7968-23.04 93.257143-21.313829 135.460572 5.500342a29.257143 29.257143 0 0 1-31.378286 49.386058c-24.649143-15.652571-49.429943-16.574171-78.248229-2.384458a29.257143 29.257143 0 1 1-25.834057-52.516571zM786.651429 528.296229c46.7968-23.04 93.257143-21.313829 135.460571 5.500342a29.257143 29.257143 0 0 1-31.378286 49.386058c-24.649143-15.652571-49.429943-16.574171-78.248228-2.384458a29.257143 29.257143 0 1 1-25.834057-52.516571z" fill="#4A383A" p-id="22751"></path><path d="M1207.998171 609.777371l-68.739657 25.014858a29.257143 29.257143 0 0 0 20.011886 54.9888l68.739657-25.014858A29.257143 29.257143 0 0 0 1207.998171 609.777371z" fill="#4A383A" p-id="22752"></path><path d="M1235.493691 772.922162m-27.492722-10.006533l-68.731803-25.01633q-27.492721-10.006532-17.486189-37.499254l0 0q10.006532-27.492721 37.499254-17.486189l68.731803 25.016331q27.492721 10.006532 17.486189 37.499253l0 0q-10.006532 27.492721-37.499254 17.486189Z" fill="#4A383A" p-id="22753"></path><path d="M62.127543 609.777371l68.739657 25.014858a29.257143 29.257143 0 0 1-20.011886 54.9888l-68.739657-25.014858a29.257143 29.257143 0 0 1 20.011886-54.9888z" fill="#4A383A" p-id="22754"></path><path d="M62.127543 762.923886l68.739657-25.014857a29.257143 29.257143 0 0 0-20.011886-54.9888l-68.739657 25.014857a29.257143 29.257143 0 0 0 20.011886 54.9888z" fill="#4A383A" p-id="22755"></path></svg>